<svg xmlns="http://www.w3.org/2000/svg" viewBox="0 0 1137 519" width="1137" height="519">
	<style>
		tspan { white-space:pre }
		.shp0 { fill: #3f3d56 } 
		.shp1 { fill: #fd9d24 } 
		.shp2 { fill: #3f7e44 } 
		.shp3 { opacity: 0.102;fill: #3f7e44 } 
		.shp4 { opacity: 0.4;fill: #fcc30b } 
		.shp5 { fill: #4c9f38 } 
		.shp6 { fill: #cccccc } 
		.shp7 { fill: #f2f2f2 } 
		.shp8 { fill: #007db8 } 
	</style>
	<path id="Layer" class="shp0" d="M144.26 510.61L142.31 510.17C164.07 413.42 218.74 325.56 296.26 262.78C354.87 215.39 424.58 183.69 498.82 170.68C573.06 157.66 649.39 163.76 720.62 188.38C791.86 213.01 855.65 255.36 906 311.45C956.35 367.54 991.6 435.52 1008.42 508.99L1006.47 509.43C960.42 307.23 783.2 166 575.5 166C370.53 166 189.17 310.93 144.26 510.61Z" />
	<path id="Layer" class="shp1" d="M899.63 274.22C869.6 274.22 845.32 249.94 845.32 219.9C845.32 189.87 869.6 165.59 899.63 165.59C929.67 165.59 953.95 189.87 953.95 219.9C953.95 249.94 929.67 274.22 899.63 274.22Z" />
	<path id="Layer" class="shp0" d="M877 437.06L879 437.06L879 516.06L877 516.06L877 437.06Z" />
	<path id="Layer" class="shp2" d="M897.46 447.12C897.59 474.75 878.15 497.23 878.15 497.23C878.15 497.23 858.51 474.93 858.38 447.3C858.25 419.68 877.69 397.2 877.69 397.2C877.69 397.2 897.33 419.5 897.46 447.12Z" />
	<path id="Layer" class="shp3" d="M897.46 448.12C897.59 475.75 878.15 498.23 878.15 498.23C878.15 498.23 858.51 475.93 858.38 448.3C858.25 420.68 877.69 398.2 877.69 398.2C877.69 398.2 897.33 420.5 897.46 448.12Z" />
	<path id="Layer" class="shp4" d="M501.02 279.99C483.74 279.99 469.77 266.02 469.77 248.74C469.77 231.46 483.74 217.49 501.02 217.49C518.3 217.49 532.27 231.46 532.27 248.74C532.27 266.02 518.3 279.99 501.02 279.99Z" />
	<path id="Layer" class="shp4" d="M443.19 285.59C431.07 285.59 421.27 275.79 421.27 263.67C421.27 251.54 431.07 241.75 443.19 241.75C455.31 241.75 465.11 251.54 465.11 263.67C465.11 275.79 455.31 285.59 443.19 285.59Z" />
	<path id="Layer" class="shp4" d="M208.19 348.59C196.07 348.59 186.27 338.79 186.27 326.67C186.27 314.54 196.07 304.75 208.19 304.75C220.31 304.75 230.11 314.54 230.11 326.67C230.11 338.79 220.31 348.59 208.19 348.59Z" />
	<path id="Layer" class="shp4" d="M856.31 277.42C839.03 277.42 825.06 263.45 825.06 246.17C825.06 228.89 839.03 214.92 856.31 214.92C873.59 214.92 887.56 228.89 887.56 246.17C887.56 263.45 873.59 277.42 856.31 277.42Z" />
	<path id="Layer" class="shp0" d="M56.63 507.27C58.32 513.53 64.13 517.41 64.13 517.41C64.13 517.41 67.18 511.14 65.49 504.88C63.79 498.61 57.99 494.74 57.99 494.74C57.99 494.74 54.94 501.01 56.63 507.27Z" />
	<path id="Layer" class="shp5" d="M59.12 505.93C63.77 510.45 64.34 517.41 64.34 517.41C64.34 517.41 57.37 517.03 52.72 512.5C48.07 507.98 47.5 501.02 47.5 501.02C47.5 501.02 54.47 501.4 59.12 505.93Z" />
	<path id="Layer" class="shp2" d="M668.63 507.27C670.32 513.53 676.13 517.41 676.13 517.41C676.13 517.41 679.18 511.14 677.49 504.88C675.79 498.61 669.99 494.74 669.99 494.74C669.99 494.74 666.94 501.01 668.63 507.27Z" />
	<path id="Layer" class="shp5" d="M671.12 505.93C675.77 510.45 676.34 517.41 676.34 517.41C676.34 517.41 669.37 517.03 664.72 512.5C660.07 507.98 659.5 501.02 659.5 501.02C659.5 501.02 666.47 501.4 671.12 505.93Z" />
	<path id="Layer" class="shp0" d="M68.14 460.2L64 453.31L102.61 420.21L201.91 420.21L201.91 429.86L166.05 468.48L124.68 476.75L68.14 460.2L68.14 460.2Z" />
	<path id="Layer" class="shp6" d="M219 439.63L219 418.06L206 418.06L206 424.86L201.91 420.21L168.81 453.31L163.29 458.82L156.4 486.41L168.81 516.75L232.25 516.75L232.25 454.69L219 439.63L219 439.63Z" />
	<path id="Layer" class="shp7" d="M64 453.31L168.81 453.31L168.81 516.75L64 516.75L64 453.31Z" />
	<path id="Layer" class="shp0" d="M132.26 473.3L154.33 473.3L154.33 492.61L132.26 492.61L132.26 473.3Z" />
	<path id="Layer" class="shp6" d="M103.99 472.61L123.3 472.61L123.3 516.75L103.99 516.75L103.99 472.61Z" />
	<path id="Layer" class="shp0" d="M81.93 479.51L81.93 472.62L73.65 472.62L73.65 479.51L81.24 479.51L81.93 479.51L81.93 479.51Z" />
	<path id="Layer" class="shp0" d="M81.24 485.03L73.65 485.03L73.65 491.92L81.93 491.92L81.93 485.03L81.24 485.03L81.24 485.03Z" />
	<path id="Layer" class="shp0" d="M87.44 472.61L95.72 472.61L95.72 479.51L87.44 479.51L87.44 472.61Z" />
	<path id="Layer" class="shp0" d="M87.44 485.03L95.72 485.03L95.72 491.92L87.44 491.92L87.44 485.03Z" />
	<path id="Layer" class="shp0" d="M198.46 480.2L198.46 473.3L190.19 473.3L190.19 480.2L197.77 480.2L198.46 480.2L198.46 480.2Z" />
	<path id="Layer" class="shp0" d="M197.77 485.72L190.19 485.72L190.19 492.61L198.46 492.61L198.46 485.72L197.77 485.72L197.77 485.72Z" />
	<path id="Layer" class="shp0" d="M203.98 473.3L212.25 473.3L212.25 480.2L203.98 480.2L203.98 473.3Z" />
	<path id="Layer" class="shp0" d="M203.98 485.72L212.25 485.72L212.25 492.61L203.98 492.61L203.98 485.72Z" />
	<path id="Layer" class="shp0" d="M467.14 460.2L463 453.31L501.61 420.21L600.91 420.21L600.91 429.86L565.05 468.48L523.68 476.75L467.14 460.2L467.14 460.2Z" />
	<path id="Layer" class="shp6" d="M618 439.63L618 418.06L605 418.06L605 424.86L600.91 420.21L567.81 453.31L562.29 458.82L555.4 486.41L567.81 516.75L631.25 516.75L631.25 454.69L618 439.63L618 439.63Z" />
	<path id="Layer" class="shp7" d="M463 453.31L567.81 453.31L567.81 516.75L463 516.75L463 453.31Z" />
	<path id="Layer" class="shp0" d="M531.26 473.3L553.33 473.3L553.33 492.61L531.26 492.61L531.26 473.3Z" />
	<path id="Layer" class="shp6" d="M502.99 472.61L522.3 472.61L522.3 516.75L502.99 516.75L502.99 472.61Z" />
	<path id="Layer" class="shp0" d="M480.93 479.51L480.93 472.62L472.65 472.62L472.65 479.51L480.24 479.51L480.93 479.51L480.93 479.51Z" />
	<path id="Layer" class="shp0" d="M480.24 485.03L472.65 485.03L472.65 491.92L480.93 491.92L480.93 485.03L480.24 485.03L480.24 485.03Z" />
	<path id="Layer" class="shp0" d="M486.44 472.61L494.72 472.61L494.72 479.51L486.44 479.51L486.44 472.61Z" />
	<path id="Layer" class="shp0" d="M486.44 485.03L494.72 485.03L494.72 491.92L486.44 491.92L486.44 485.03Z" />
	<path id="Layer" class="shp0" d="M597.46 480.2L597.46 473.3L589.18 473.3L589.18 480.2L596.77 480.2L597.46 480.2L597.46 480.2Z" />
	<path id="Layer" class="shp0" d="M596.77 485.72L589.18 485.72L589.18 492.61L597.46 492.61L597.46 485.72L596.77 485.72L596.77 485.72Z" />
	<path id="Layer" class="shp0" d="M602.98 473.3L611.25 473.3L611.25 480.2L602.98 480.2L602.98 473.3Z" />
	<path id="Layer" class="shp0" d="M602.98 485.72L611.25 485.72L611.25 492.61L602.98 492.61L602.98 485.72Z" />
	<path id="Layer" class="shp0" d="M280.51 344.36L273.62 338.84L312.23 304.37L410.15 304.37L410.15 334.71L346.71 377.46L280.51 344.36L280.51 344.36Z" />
	<path id="Layer" class="shp6" d="M428 323.71L428 305.06L415 305.06L415 309.62L410.15 304.37L378.43 338.84L366.02 347.12L346.77 487.72L375.8 516.75L443.25 516.75L443.25 340.22L428 323.71L428 323.71Z" />
	<path id="Layer" class="shp7" d="M273.62 338.84L378.43 338.84L378.43 516.75L273.62 516.75L273.62 338.84Z" />
	<path id="Layer" class="shp6" d="M314.3 473.3L333.61 473.3L333.61 516.75L314.3 516.75L314.3 473.3Z" />
	<path id="Layer" class="shp0" d="M293.62 485.72L293.62 478.82L285.34 478.82L285.34 485.72L292.93 485.72L293.62 485.72L293.62 485.72Z" />
	<path id="Layer" class="shp0" d="M292.93 491.23L285.34 491.23L285.34 498.13L293.62 498.13L293.62 491.23L292.93 491.23L292.93 491.23Z" />
	<path id="Layer" class="shp0" d="M299.13 478.82L307.41 478.82L307.41 485.72L299.13 485.72L299.13 478.82Z" />
	<path id="Layer" class="shp0" d="M299.13 491.23L307.41 491.23L307.41 498.13L299.13 498.13L299.13 491.23Z" />
	<path id="Layer" class="shp0" d="M350.16 485.72L350.16 478.82L341.88 478.82L341.88 485.72L349.47 485.72L350.16 485.72L350.16 485.72Z" />
	<path id="Layer" class="shp0" d="M349.47 491.23L341.88 491.23L341.88 498.13L350.16 498.13L350.16 491.23L349.47 491.23L349.47 491.23Z" />
	<path id="Layer" class="shp0" d="M355.67 478.82L363.95 478.82L363.95 485.72L355.67 485.72L355.67 478.82Z" />
	<path id="Layer" class="shp0" d="M355.67 491.23L363.95 491.23L363.95 498.13L355.67 498.13L355.67 491.23Z" />
	<path id="Layer" class="shp0" d="M408.08 347.81L408.08 340.91L399.81 340.91L399.81 347.81L407.39 347.81L408.08 347.81L408.08 347.81Z" />
	<path id="Layer" class="shp0" d="M407.39 353.32L399.81 353.32L399.81 360.22L408.08 360.22L408.08 353.32L407.39 353.32L407.39 353.32Z" />
	<path id="Layer" class="shp0" d="M413.6 340.91L421.87 340.91L421.87 347.81L413.6 347.81L413.6 340.91Z" />
	<path id="Layer" class="shp0" d="M413.6 353.32L421.87 353.32L421.87 360.22L413.6 360.22L413.6 353.32Z" />
	<path id="Layer" class="shp0" d="M408.08 386.42L408.08 379.53L399.81 379.53L399.81 386.42L407.39 386.42L408.08 386.42L408.08 386.42Z" />
	<path id="Layer" class="shp0" d="M407.39 391.94L399.81 391.94L399.81 398.83L408.08 398.83L408.08 391.94L407.39 391.94L407.39 391.94Z" />
	<path id="Layer" class="shp0" d="M413.6 379.53L421.87 379.53L421.87 386.42L413.6 386.42L413.6 379.53Z" />
	<path id="Layer" class="shp0" d="M413.6 391.94L421.87 391.94L421.87 398.83L413.6 398.83L413.6 391.94Z" />
	<path id="Layer" class="shp0" d="M408.08 425.04L408.08 418.14L399.81 418.14L399.81 425.04L407.39 425.04L408.08 425.04L408.08 425.04Z" />
	<path id="Layer" class="shp0" d="M407.39 430.55L399.81 430.55L399.81 437.45L408.08 437.45L408.08 430.55L407.39 430.55L407.39 430.55Z" />
	<path id="Layer" class="shp0" d="M413.6 418.14L421.87 418.14L421.87 425.04L413.6 425.04L413.6 418.14Z" />
	<path id="Layer" class="shp0" d="M413.6 430.55L421.87 430.55L421.87 437.45L413.6 437.45L413.6 430.55Z" />
	<path id="Layer" class="shp0" d="M408.08 463.65L408.08 456.75L399.81 456.75L399.81 463.65L407.39 463.65L408.08 463.65L408.08 463.65Z" />
	<path id="Layer" class="shp0" d="M407.39 469.17L399.81 469.17L399.81 476.06L408.08 476.06L408.08 469.17L407.39 469.17L407.39 469.17Z" />
	<path id="Layer" class="shp0" d="M413.6 456.76L421.87 456.76L421.87 463.65L413.6 463.65L413.6 456.76Z" />
	<path id="Layer" class="shp0" d="M413.6 469.17L421.87 469.17L421.87 476.06L413.6 476.06L413.6 469.17Z" />
	<path id="Layer" class="shp0" d="M285.34 347.81L365.33 347.81L365.33 364.36L285.34 364.36L285.34 347.81Z" />
	<path id="Layer" class="shp0" d="M285.34 380.91L365.33 380.91L365.33 397.46L285.34 397.46L285.34 380.91Z" />
	<path id="Layer" class="shp0" d="M285.34 414L365.33 414L365.33 430.55L285.34 430.55L285.34 414Z" />
	<path id="Layer" class="shp0" d="M285.34 447.1L365.33 447.1L365.33 463.65L285.34 463.65L285.34 447.1Z" />
	<path id="Layer" class="shp0" d="M683.51 344.36L676.62 338.84L715.23 304.37L813.15 304.37L813.15 334.71L749.71 377.46L683.51 344.36L683.51 344.36Z" />
	<path id="Layer" class="shp6" d="M831 323.71L831 305.06L818 305.06L818 309.62L813.15 304.37L781.43 338.84L769.02 347.12L749.77 487.72L778.8 516.75L846.25 516.75L846.25 340.22L831 323.71L831 323.71Z" />
	<path id="Layer" class="shp7" d="M676.62 338.84L781.43 338.84L781.43 516.75L676.62 516.75L676.62 338.84Z" />
	<path id="Layer" class="shp6" d="M717.3 473.3L736.61 473.3L736.61 516.75L717.3 516.75L717.3 473.3Z" />
	<path id="Layer" class="shp0" d="M696.62 485.72L696.62 478.82L688.34 478.82L688.34 485.72L695.93 485.72L696.62 485.72L696.62 485.72Z" />
	<path id="Layer" class="shp0" d="M695.93 491.23L688.34 491.23L688.34 498.13L696.62 498.13L696.62 491.23L695.93 491.23L695.93 491.23Z" />
	<path id="Layer" class="shp0" d="M702.13 478.82L710.41 478.82L710.41 485.72L702.13 485.72L702.13 478.82Z" />
	<path id="Layer" class="shp0" d="M702.13 491.23L710.41 491.23L710.41 498.13L702.13 498.13L702.13 491.23Z" />
	<path id="Layer" class="shp0" d="M753.16 485.72L753.16 478.82L744.88 478.82L744.88 485.72L752.47 485.72L753.16 485.72L753.16 485.72Z" />
	<path id="Layer" class="shp0" d="M752.47 491.23L744.88 491.23L744.88 498.13L753.16 498.13L753.16 491.23L752.47 491.23L752.47 491.23Z" />
	<path id="Layer" class="shp0" d="M758.67 478.82L766.95 478.82L766.95 485.72L758.67 485.72L758.67 478.82Z" />
	<path id="Layer" class="shp0" d="M758.67 491.23L766.95 491.23L766.95 498.13L758.67 498.13L758.67 491.23Z" />
	<path id="Layer" class="shp0" d="M811.08 347.81L811.08 340.91L802.8 340.91L802.8 347.81L810.39 347.81L811.08 347.81L811.08 347.81Z" />
	<path id="Layer" class="shp0" d="M810.39 353.32L802.8 353.32L802.8 360.22L811.08 360.22L811.08 353.32L810.39 353.32L810.39 353.32Z" />
	<path id="Layer" class="shp0" d="M816.6 340.91L824.87 340.91L824.87 347.81L816.6 347.81L816.6 340.91Z" />
	<path id="Layer" class="shp0" d="M816.6 353.32L824.87 353.32L824.87 360.22L816.6 360.22L816.6 353.32Z" />
	<path id="Layer" class="shp0" d="M811.08 386.42L811.08 379.53L802.8 379.53L802.8 386.42L810.39 386.42L811.08 386.42L811.08 386.42Z" />
	<path id="Layer" class="shp0" d="M810.39 391.94L802.8 391.94L802.8 398.83L811.08 398.83L811.08 391.94L810.39 391.94L810.39 391.94Z" />
	<path id="Layer" class="shp0" d="M816.6 379.53L824.87 379.53L824.87 386.42L816.6 386.42L816.6 379.53Z" />
	<path id="Layer" class="shp0" d="M816.6 391.94L824.87 391.94L824.87 398.83L816.6 398.83L816.6 391.94Z" />
	<path id="Layer" class="shp0" d="M811.08 425.04L811.08 418.14L802.8 418.14L802.8 425.04L810.39 425.04L811.08 425.04L811.08 425.04Z" />
	<path id="Layer" class="shp0" d="M810.39 430.55L802.8 430.55L802.8 437.45L811.08 437.45L811.08 430.55L810.39 430.55L810.39 430.55Z" />
	<path id="Layer" class="shp0" d="M816.6 418.14L824.87 418.14L824.87 425.04L816.6 425.04L816.6 418.14Z" />
	<path id="Layer" class="shp0" d="M816.6 430.55L824.87 430.55L824.87 437.45L816.6 437.45L816.6 430.55Z" />
	<path id="Layer" class="shp0" d="M811.08 463.65L811.08 456.75L802.8 456.75L802.8 463.65L810.39 463.65L811.08 463.65L811.08 463.65Z" />
	<path id="Layer" class="shp0" d="M810.39 469.17L802.8 469.17L802.8 476.06L811.08 476.06L811.08 469.17L810.39 469.17L810.39 469.17Z" />
	<path id="Layer" class="shp0" d="M816.6 456.76L824.87 456.76L824.87 463.65L816.6 463.65L816.6 456.76Z" />
	<path id="Layer" class="shp0" d="M816.6 469.17L824.87 469.17L824.87 476.06L816.6 476.06L816.6 469.17Z" />
	<path id="Layer" class="shp0" d="M688.34 347.81L768.33 347.81L768.33 364.36L688.34 364.36L688.34 347.81Z" />
	<path id="Layer" class="shp0" d="M688.34 380.91L768.33 380.91L768.33 397.46L688.34 397.46L688.34 380.91Z" />
	<path id="Layer" class="shp0" d="M688.34 414L768.33 414L768.33 430.55L688.34 430.55L688.34 414Z" />
	<path id="Layer" class="shp0" d="M688.34 447.1L768.33 447.1L768.33 463.65L688.34 463.65L688.34 447.1Z" />
	<path id="Layer" class="shp0" d="M904.51 344.36L897.62 338.84L936.23 304.37L1034.15 304.37L1034.15 334.71L970.71 377.46L904.51 344.36L904.51 344.36Z" />
	<path id="Layer" class="shp6" d="M1052 323.71L1052 305.06L1039 305.06L1039 309.62L1034.15 304.37L1002.43 338.84L990.02 347.12L970.77 487.72L999.8 516.75L1067.25 516.75L1067.25 340.22L1052 323.71L1052 323.71Z" />
	<path id="Layer" class="shp7" d="M897.62 338.84L1002.43 338.84L1002.43 516.75L897.62 516.75L897.62 338.84Z" />
	<path id="Layer" class="shp6" d="M938.3 473.3L957.61 473.3L957.61 516.75L938.3 516.75L938.3 473.3Z" />
	<path id="Layer" class="shp0" d="M917.62 485.72L917.62 478.82L909.34 478.82L909.34 485.72L916.93 485.72L917.62 485.72L917.62 485.72Z" />
	<path id="Layer" class="shp0" d="M916.93 491.23L909.34 491.23L909.34 498.13L917.62 498.13L917.62 491.23L916.93 491.23L916.93 491.23Z" />
	<path id="Layer" class="shp0" d="M923.13 478.82L931.41 478.82L931.41 485.72L923.13 485.72L923.13 478.82Z" />
	<path id="Layer" class="shp0" d="M923.13 491.23L931.41 491.23L931.41 498.13L923.13 498.13L923.13 491.23Z" />
	<path id="Layer" class="shp0" d="M974.16 485.72L974.16 478.82L965.88 478.82L965.88 485.72L973.47 485.72L974.16 485.72L974.16 485.72Z" />
	<path id="Layer" class="shp0" d="M973.47 491.23L965.88 491.23L965.88 498.13L974.16 498.13L974.16 491.23L973.47 491.23L973.47 491.23Z" />
	<path id="Layer" class="shp0" d="M979.67 478.82L987.95 478.82L987.95 485.72L979.67 485.72L979.67 478.82Z" />
	<path id="Layer" class="shp0" d="M979.67 491.23L987.95 491.23L987.95 498.13L979.67 498.13L979.67 491.23Z" />
	<path id="Layer" class="shp0" d="M1032.08 347.81L1032.08 340.91L1023.8 340.91L1023.8 347.81L1031.39 347.81L1032.08 347.81L1032.08 347.81Z" />
	<path id="Layer" class="shp0" d="M1031.39 353.32L1023.8 353.32L1023.8 360.22L1032.08 360.22L1032.08 353.32L1031.39 353.32L1031.39 353.32Z" />
	<path id="Layer" class="shp0" d="M1037.6 340.91L1045.87 340.91L1045.87 347.81L1037.6 347.81L1037.6 340.91Z" />
	<path id="Layer" class="shp0" d="M1037.6 353.32L1045.87 353.32L1045.87 360.22L1037.6 360.22L1037.6 353.32Z" />
	<path id="Layer" class="shp0" d="M1032.08 386.42L1032.08 379.53L1023.8 379.53L1023.8 386.42L1031.39 386.42L1032.08 386.42L1032.08 386.42Z" />
	<path id="Layer" class="shp0" d="M1031.39 391.94L1023.8 391.94L1023.8 398.83L1032.08 398.83L1032.08 391.94L1031.39 391.94L1031.39 391.94Z" />
	<path id="Layer" class="shp0" d="M1037.6 379.53L1045.87 379.53L1045.87 386.42L1037.6 386.42L1037.6 379.53Z" />
	<path id="Layer" class="shp0" d="M1037.6 391.94L1045.87 391.94L1045.87 398.83L1037.6 398.83L1037.6 391.94Z" />
	<path id="Layer" class="shp0" d="M1032.08 425.04L1032.08 418.14L1023.8 418.14L1023.8 425.04L1031.39 425.04L1032.08 425.04L1032.08 425.04Z" />
	<path id="Layer" class="shp0" d="M1031.39 430.55L1023.8 430.55L1023.8 437.45L1032.08 437.45L1032.08 430.55L1031.39 430.55L1031.39 430.55Z" />
	<path id="Layer" class="shp0" d="M1037.6 418.14L1045.87 418.14L1045.87 425.04L1037.6 425.04L1037.6 418.14Z" />
	<path id="Layer" class="shp0" d="M1037.6 430.55L1045.87 430.55L1045.87 437.45L1037.6 437.45L1037.6 430.55Z" />
	<path id="Layer" class="shp0" d="M1032.08 463.65L1032.08 456.75L1023.8 456.75L1023.8 463.65L1031.39 463.65L1032.08 463.65L1032.08 463.65Z" />
	<path id="Layer" class="shp0" d="M1031.39 469.17L1023.8 469.17L1023.8 476.06L1032.08 476.06L1032.08 469.17L1031.39 469.17L1031.39 469.17Z" />
	<path id="Layer" class="shp0" d="M1037.6 456.76L1045.87 456.76L1045.87 463.65L1037.6 463.65L1037.6 456.76Z" />
	<path id="Layer" class="shp0" d="M1037.6 469.17L1045.87 469.17L1045.87 476.06L1037.6 476.06L1037.6 469.17Z" />
	<path id="Layer" class="shp0" d="M909.34 347.81L989.33 347.81L989.33 364.36L909.34 364.36L909.34 347.81Z" />
	<path id="Layer" class="shp0" d="M909.34 380.91L989.33 380.91L989.33 397.46L909.34 397.46L909.34 380.91Z" />
	<path id="Layer" class="shp0" d="M909.34 414L989.33 414L989.33 430.55L909.34 430.55L909.34 414Z" />
	<path id="Layer" class="shp0" d="M909.34 447.1L989.33 447.1L989.33 463.65L909.34 463.65L909.34 447.1Z" />
	<path id="Layer" class="shp0" d="M0 516.06L1137 516.06L1137 518.06L0 518.06L0 516.06Z" />
	<path id="Layer" class="shp0" d="M252 437.06L254 437.06L254 516.06L252 516.06L252 437.06Z" />
	<path id="Layer" class="shp5" d="M272.46 447.12C272.59 474.75 253.15 497.23 253.15 497.23C253.15 497.23 233.51 474.93 233.38 447.3C233.25 419.68 252.69 397.2 252.69 397.2C252.69 397.2 272.33 419.5 272.46 447.12Z" />
	<path id="Layer" class="shp0" d="M452 437.06L454 437.06L454 516.06L452 516.06L452 437.06Z" />
	<path id="Layer" class="shp5" d="M472.46 447.12C472.59 474.75 453.15 497.23 453.15 497.23C453.15 497.23 433.51 474.93 433.38 447.3C433.25 419.68 452.69 397.2 452.69 397.2C452.69 397.2 472.33 419.5 472.46 447.12Z" />
	<path id="Layer" class="shp0" d="M851 437.06L853 437.06L853 516.06L851 516.06L851 437.06Z" />
	<path id="Layer" class="shp5" d="M871.46 447.12C871.59 474.75 852.15 497.23 852.15 497.23C852.15 497.23 832.51 474.93 832.38 447.3C832.25 419.68 851.69 397.2 851.69 397.2C851.69 397.2 871.33 419.5 871.46 447.12Z" />
	<path id="Layer" class="shp8" d="M587.5 172.05C566.49 172.05 549.5 168.23 549.5 163.5C549.5 158.77 566.49 154.95 587.5 154.95C608.51 154.95 625.5 158.77 625.5 163.5C625.5 168.23 608.51 172.05 587.5 172.05Z" />
	<path id="Layer" class="shp8" d="M630.5 44C630.5 68.3 586.5 137 586.5 137C586.5 137 542.5 68.3 542.5 44C542.5 32.33 547.14 21.14 555.39 12.89C563.64 4.64 574.83 0 586.5 0C598.17 0 609.36 4.64 617.61 12.89C625.86 21.14 630.5 32.33 630.5 44L630.5 44Z" />
	<path id="Layer" class="shp7" d="M586.5 69C572.67 69 561.5 57.83 561.5 44C561.5 30.17 572.67 19 586.5 19C600.33 19 611.5 30.17 611.5 44C611.5 57.83 600.33 69 586.5 69Z" />
</svg>