<svg xmlns="http://www.w3.org/2000/svg" viewBox="0 0 1120 669" width="1120" height="669">
	<style>
		tspan { white-space:pre }
		.shp0 { fill: #3f7e44 } 
		.shp1 { fill: #4c9f38 } 
		.shp2 { fill: #3f3d56 } 
		.shp3 { fill: #007db8 } 
		.shp4 { fill: #ffffff } 
		.shp5 { fill: #fcc30b } 
		.shp6 { fill: #fd9d24 } 
		.shp7 { fill: #cfcce0 } 
		.shp8 { fill: #2f2e41 } 
		.shp9 { fill: #c6959c } 
		.shp10 { fill: #d0cde1 } 
		.shp11 { opacity: 0.149;fill: #000000 } 
	</style>
	<path id="Layer" fill-rule="evenodd" class="shp0" d="M271.49 527.71L270.22 527.23C269.94 527.13 242.23 516.51 229.24 492.43C216.26 468.36 222.62 439.37 222.68 439.08L222.98 437.76L224.25 438.23C224.53 438.34 252.24 448.96 265.22 473.03C278.21 497.11 271.85 526.1 271.78 526.39L271.49 527.71ZM231.32 491.31C242.3 511.67 264.2 522.1 269.75 524.49C270.8 518.54 274.11 494.49 263.15 474.15C252.18 453.82 230.27 443.37 224.72 440.98C223.66 446.93 220.36 470.98 231.32 491.31Z" />
	<path id="Layer" class="shp1" d="M239.17 483.99C262.5 498.03 271.48 525.91 271.48 525.91C271.48 525.91 242.64 531.03 219.31 516.99C195.98 502.96 186.99 475.07 186.99 475.07C186.99 475.07 215.83 469.95 239.17 483.99Z" />
	<path id="Layer" class="shp2" d="M0 527.6L710.43 527.6L710.43 529.6L0 529.6L0 527.6Z" />
	<path id="Layer" class="shp2" d="M409.47 666.6L1119.9 666.6L1119.9 668.6L409.47 668.6L409.47 666.6Z" />
	<path id="Layer" class="shp2" d="M527.5 510.65L577.9 435.7L527.6 518.71L527.7 527.15C524.02 527.17 520.38 527.11 516.77 526.96L519.27 418.55L519.2 417.71L519.3 417.55L519.54 407.31L464.34 327.17L519.47 399.64L519.67 401.81L521.55 319.9L473.88 236.81L521.69 305.51L521.19 135.81L521.19 135.25L521.21 135.8L524.37 269.55L567.82 215.22L524.52 281.07L525.46 354.33L565.45 282.83L525.61 365.1L526.14 405.84L584.28 306.24L526.32 420.06L527.5 510.65Z" />
	<path id="Layer" class="shp2" d="M87 511.15L137.4 436.2L87.1 519.21L87.2 527.65C83.52 527.67 79.88 527.61 76.27 527.46L78.77 419.05L78.7 418.21L78.8 418.05L79.04 407.81L23.84 327.67L78.97 400.14L79.17 402.31L81.05 320.4L33.38 237.31L81.19 306.01L80.69 136.31L80.69 135.75L80.71 136.3L83.87 270.05L127.32 215.72L84.02 281.57L84.96 354.83L124.95 283.33L85.11 365.6L85.64 406.34L143.78 306.74L85.82 420.56L87 511.15Z" />
	<path id="Layer" class="shp3" d="M442.43 240.05L440.33 240.05L440.33 182.55C440.33 178.18 439.47 173.85 437.8 169.81C436.12 165.78 433.67 162.11 430.58 159.02C427.49 155.93 423.82 153.48 419.79 151.8C415.75 150.13 411.42 149.27 407.05 149.27L285.23 149.27C280.86 149.27 276.54 150.13 272.5 151.8C268.46 153.48 264.79 155.93 261.7 159.02C258.61 162.11 256.16 165.78 254.49 169.81C252.82 173.85 251.95 178.18 251.95 182.55L251.95 497.99C251.95 502.36 252.82 506.69 254.49 510.73C256.16 514.76 258.61 518.43 261.7 521.52C264.79 524.61 268.46 527.06 272.5 528.74C276.54 530.41 280.86 531.27 285.23 531.27L407.05 531.27C411.42 531.27 415.75 530.41 419.79 528.74C423.82 527.06 427.49 524.61 430.58 521.52C433.67 518.43 436.12 514.76 437.8 510.73C439.47 506.69 440.33 502.36 440.33 497.99L440.33 280.98L442.43 280.98L442.43 240.05Z" />
	<path id="Layer" fill-rule="evenodd" class="shp4" d="M285.99 525.34C282.59 525.34 279.23 524.67 276.1 523.37C272.96 522.06 270.12 520.16 267.72 517.76C265.32 515.36 263.41 512.51 262.11 509.38C260.81 506.24 260.14 502.88 260.14 499.49L260.14 184.51C260.14 181.11 260.81 177.75 262.12 174.62C263.42 171.48 265.32 168.64 267.72 166.24C270.12 163.84 272.97 161.93 276.1 160.63C279.23 159.33 282.59 158.66 285.99 158.66L302.33 158.66L301.76 160.04C301.63 160.36 301.52 160.69 301.42 161.02C301.32 161.36 301.23 161.69 301.16 162.04C301.1 162.38 301.05 162.72 301.01 163.07C300.98 163.42 300.96 163.77 300.97 164.11C300.97 165.53 301.25 166.94 301.79 168.25C302.33 169.56 303.13 170.75 304.13 171.75C305.14 172.75 306.33 173.55 307.64 174.09C308.95 174.64 310.35 174.92 311.77 174.92L381.56 174.92C382.98 174.92 384.38 174.64 385.69 174.09C387 173.55 388.2 172.75 389.2 171.75C390.2 170.75 391 169.56 391.54 168.25C392.08 166.94 392.37 165.53 392.37 164.11C392.37 163.77 392.35 163.42 392.32 163.07C392.28 162.72 392.23 162.38 392.17 162.04C392.1 161.69 392.02 161.36 391.92 161.02C391.82 160.69 391.7 160.36 391.57 160.04L391 158.66L408.39 158.66C411.79 158.66 415.15 159.33 418.28 160.63C421.42 161.93 424.26 163.84 426.66 166.24C429.06 168.64 430.97 171.48 432.27 174.62C433.57 177.75 434.24 181.11 434.24 184.51L434.24 499.49C434.24 502.88 433.57 506.24 432.27 509.38C430.97 512.51 429.06 515.36 426.66 517.76C424.27 520.16 421.42 522.06 418.28 523.37C415.15 524.67 411.79 525.34 408.39 525.34L285.99 525.34ZM285.99 160.66C282.86 160.66 279.76 161.28 276.87 162.48C273.97 163.68 271.35 165.44 269.13 167.65C266.92 169.86 265.16 172.49 263.96 175.38C262.76 178.28 262.14 181.37 262.14 184.51L262.14 499.49C262.14 502.62 262.76 505.72 263.96 508.61C265.16 511.5 266.92 514.13 269.13 516.35C271.34 518.56 273.97 520.32 276.86 521.52C279.76 522.72 282.86 523.34 285.99 523.34L408.39 523.34C411.53 523.34 414.63 522.72 417.52 521.52C420.41 520.32 423.04 518.56 425.25 516.35C427.47 514.13 429.22 511.5 430.42 508.61C431.62 505.72 432.24 502.62 432.24 499.49L432.24 184.51C432.24 181.37 431.62 178.28 430.42 175.38C429.22 172.49 427.46 169.86 425.25 167.65C423.04 165.44 420.41 163.68 417.52 162.48C414.62 161.28 411.52 160.66 408.39 160.66L393.89 160.66C394.43 162.56 394.51 164.56 394.14 166.5C393.77 168.44 392.96 170.27 391.76 171.85C390.57 173.42 389.03 174.7 387.26 175.58C385.49 176.46 383.54 176.92 381.56 176.92L311.77 176.92C309.8 176.92 307.85 176.46 306.08 175.58C304.31 174.7 302.76 173.42 301.57 171.85C300.38 170.27 299.56 168.44 299.19 166.5C298.82 164.56 298.91 162.56 299.44 160.66L285.99 160.66Z" />
	<path id="Layer" class="shp4" d="M311.88 372.03L415.3 372.03L415.3 375.87L311.88 375.87L311.88 372.03ZM311.88 384.2L415.3 384.2L415.3 388.04L311.88 388.04L311.88 384.2ZM311.88 396.36L415.3 396.36L415.3 400.21L311.88 400.21L311.88 396.36ZM279.09 374.4L302.52 374.4L302.52 397.83L279.09 397.83L279.09 374.4ZM311.88 423.03L415.3 423.03L415.3 426.87L311.88 426.87L311.88 423.03ZM311.88 435.2L415.3 435.2L415.3 439.04L311.88 439.04L311.88 435.2ZM311.88 447.36L415.3 447.36L415.3 451.21L311.88 451.21L311.88 447.36ZM279.09 425.4L302.52 425.4L302.52 448.83L279.09 448.83L279.09 425.4Z" />
	<path id="Layer" class="shp5" d="M371.47 296C366.35 314.92 348.82 326.63 348.82 326.63C348.82 326.63 339.59 307.68 344.71 288.76C349.83 269.84 367.36 258.12 367.36 258.12C367.36 258.12 376.59 277.08 371.47 296Z" />
	<path id="Layer" class="shp5" d="M323.91 296C329.03 314.92 346.56 326.63 346.56 326.63C346.56 326.63 355.79 307.68 350.67 288.76C345.56 269.84 328.03 258.12 328.03 258.12C328.03 258.12 318.79 277.08 323.91 296Z" />
	<path id="Layer" class="shp1" d="M331.43 291.93C345.48 305.6 347.19 326.62 347.19 326.62C347.19 326.62 326.14 325.47 312.09 311.8C298.05 298.13 296.34 277.11 296.34 277.11C296.34 277.11 317.39 278.26 331.43 291.93Z" />
	<path id="Layer" class="shp1" d="M362.95 291.93C348.91 305.6 347.19 326.62 347.19 326.62C347.19 326.62 368.24 325.47 382.29 311.8C396.33 298.13 398.05 277.11 398.05 277.11C398.05 277.11 376.99 278.26 362.95 291.93Z" />
	<path id="Layer" class="shp6" d="M112.45 184.59L141.28 173.44L152.04 201.28L123.21 212.43L112.45 184.59Z" />
	<path id="Layer" fill-rule="evenodd" class="shp2" d="M146.83 199.08L116.48 210.82L105.15 181.52L135.5 169.78L146.83 199.08ZM117.44 208.77L144.75 198.2L134.55 171.84L107.24 182.4L117.44 208.77Z" />
	<path id="Layer" class="shp6" d="M220.18 14.81L249.01 3.66L259.78 31.49L230.95 42.64L220.18 14.81Z" />
	<path id="Layer" fill-rule="evenodd" class="shp2" d="M254.57 29.3L224.22 41.04L212.89 11.74L243.24 0L254.57 29.3ZM225.17 38.98L252.48 28.42L242.29 2.05L214.97 12.62L225.17 38.98Z" />
	<path id="Layer" fill-rule="evenodd" class="shp2" d="M887.49 535.81C887.49 581.15 868.61 618.04 845.39 618.04C822.18 618.04 803.3 581.15 803.3 535.81C803.28 532.66 803.37 529.52 803.55 526.38C803.74 523.24 804.02 520.11 804.41 516.99C804.79 513.86 805.27 510.76 805.85 507.67C806.43 504.58 807.11 501.5 807.89 498.46C808.35 496.71 808.84 495 809.36 493.33C816.74 469.52 830.13 453.57 845.39 453.57C868.61 453.57 887.49 490.46 887.49 535.81ZM845.39 616.74C867.88 616.74 886.18 580.43 886.18 535.81C886.18 491.19 867.88 454.88 845.39 454.88C830.71 454.88 817.82 470.34 810.64 493.49C810.15 495.06 809.68 496.67 809.25 498.31C808.47 501.36 807.78 504.45 807.19 507.55C806.6 510.65 806.11 513.77 805.72 516.91C805.33 520.04 805.05 523.19 804.86 526.34C804.67 529.49 804.59 532.65 804.6 535.81C804.6 580.43 822.9 616.74 845.39 616.74Z" />
	<path id="Layer" fill-rule="evenodd" class="shp2" d="M855.51 583.35C847.46 583.35 841.15 562.47 841.15 535.81C841.15 509.15 847.46 488.26 855.51 488.26C863.56 488.26 869.87 509.15 869.87 535.81C869.87 562.47 863.56 583.35 855.51 583.35ZM855.51 489.57C848.43 489.57 842.45 510.74 842.45 535.81C842.45 560.87 848.43 582.05 855.51 582.05C862.58 582.05 868.56 560.87 868.56 535.81C868.56 510.74 862.58 489.57 855.51 489.57L855.51 489.57Z" />
	<path id="Layer" class="shp7" d="M857.14 546.73C854.07 546.73 851.59 541.85 851.59 535.81C851.59 529.77 854.07 524.89 857.14 524.89C860.21 524.89 862.69 529.77 862.69 535.81C862.69 541.85 860.21 546.73 857.14 546.73Z" />
	<path id="Layer" class="shp2" d="M845.07 387.65L934.48 387.33L934.48 422.55L845.07 426.16L845.07 387.65L845.07 387.65Z" />
	<path id="Layer" class="shp2" d="M768.7 507.13L767.4 507.06L771.35 435.3L852.25 435.3L852.25 436.6L772.59 436.6L768.7 507.13L768.7 507.13Z" />
	<path id="Layer" class="shp2" d="M768.57 623.25L722.88 615.42L723.15 614.14L768.84 621.97L768.57 623.25L768.57 623.25Z" />
	<path id="Layer" class="shp2" d="M777.79 639.58L777.9 638.28L833.37 642.84L833.26 644.15L777.79 639.58Z" />
	<path id="Layer" class="shp2" d="M906.58 507.2C906.09 508.77 905.63 510.37 905.19 512.01L903.83 512.16L861.38 516.88L764.14 507.09L865.3 501.87L905.3 507.03L906.58 507.2Z" />
	<path id="Layer" class="shp8" d="M884.34 273.64C884.34 273.64 870.21 268.59 861.12 288.79C852.03 308.98 837.9 331.19 837.9 331.19L845.97 333.21C845.97 333.21 847.99 319.08 853.04 317.06L851.02 335.23C851.02 335.23 911.6 356.44 938.86 333.21L937.85 326.15C937.85 326.15 941.89 327.15 941.89 333.21L944.92 330.18C944.92 330.18 941.89 324.13 932.81 316.05C926.84 310.75 924.79 300.66 924.09 294.35C923.96 293.05 923.73 291.75 923.4 290.48C923.08 289.21 922.66 287.96 922.15 286.75C921.63 285.54 921.03 284.37 920.35 283.25C919.66 282.13 918.89 281.06 918.04 280.06C912 273.06 901 265.62 884.34 273.64Z" />
	<path id="Layer" class="shp9" d="M806.23 292.69L800.36 231.34C800.36 231.34 788.61 198.06 806.23 200.67C823.85 203.28 813.41 228.73 813.41 228.73L823.2 292.69L806.23 292.69ZM760.55 571.38L754.02 593.57L766.42 604.01L775.56 575.95L760.55 571.38L760.55 571.38ZM810.8 587.69L804.27 611.19L827.12 625.55C827.12 625.55 827.77 598.79 831.03 593.57L810.8 587.69Z" />
	<path id="Layer" class="shp8" d="M838.87 462.38L835.6 468.91C835.6 468.91 798.4 451.94 788.61 475.44C778.82 498.93 757.28 573.34 757.28 573.34L776.21 581.17L810.8 502.2L889.77 500.24L893.04 456.51L838.87 462.38Z" />
	<path id="Layer" class="shp8" d="M866.28 473.48C866.28 473.48 812.76 462.38 808.84 489.14C804.93 515.9 810.8 566.81 811.45 568.11C812.11 569.42 808.84 593.57 808.84 593.57L832.34 596.83C832.34 596.83 847.35 525.69 840.82 507.42L884.98 504.69C900.22 503.74 912.68 491.7 913.55 476.45C913.89 470.62 912.43 465.32 907.39 462.38C891.73 453.25 863.01 453.25 863.01 453.25L866.28 473.48Z" />
	<path id="Layer" class="shp8" d="M762.5 592.92C762.5 592.92 757.94 583.13 751.41 587.69C744.88 592.26 729.87 602.05 729.87 602.05C729.87 602.05 706.65 610.23 727.26 615.76C745.59 620.68 750.1 619.67 750.1 619.67C750.1 619.67 765.12 622.28 767.07 620.98C769.03 619.67 770.34 598.79 770.34 598.79C770.34 598.79 761.2 596.83 762.5 592.92Z" />
	<path id="Layer" class="shp8" d="M813.41 613.15C813.41 613.15 806.89 604.01 802.32 607.93C797.75 611.84 781.43 622.94 781.43 622.94C781.43 622.94 754.02 630.77 778.17 637.95C802.32 645.13 829.08 643.82 829.73 641.21C830.38 638.6 828.42 619.67 828.42 619.67C828.42 619.67 814.72 619.02 813.41 613.15Z" />
	<path id="Layer" class="shp9" d="M891.73 338.38C878.74 338.38 868.23 327.88 868.23 314.88C868.23 301.89 878.74 291.39 891.73 291.39C904.72 291.39 915.23 301.89 915.23 314.88C915.23 327.88 904.72 338.38 891.73 338.38Z" />
	<path id="Layer" class="shp9" d="M874.76 325.33C874.76 325.33 873.46 352.09 866.93 354.04C860.4 356 842.13 377.54 850.61 384.07C859.1 390.59 908.05 386.02 908.05 386.02L903.48 352.09C903.48 352.09 893.04 344.91 901.52 332.51L874.76 325.33Z" />
	<path id="Layer" class="shp7" d="M874.11 369.71L869.54 348.17L854.53 342.3L842.13 371.01C842.13 371.01 828.1 464.02 832.01 465.32C832.56 465.51 833.12 465.68 833.68 465.82C834.24 465.96 834.82 466.07 835.39 466.15C835.97 466.23 836.54 466.29 837.12 466.31C837.7 466.34 838.29 466.33 838.87 466.3C839.45 466.27 859.75 459.77 866.28 463.04C872.8 466.3 906.74 468.91 906.74 468.91C906.74 468.91 930.24 456.51 928.93 445.42C927.63 434.32 928.93 372.32 928.93 372.32L925.99 344.58L900.24 348.61L874.11 369.71Z" />
	<path id="Layer" class="shp7" d="M855.18 345.56L854.53 341.64L836.25 319.45L825.81 282.25L800.36 292.04L818.63 337.07L844.74 370.36L855.18 345.56L855.18 345.56Z" />
	<path id="Layer" class="shp8" d="M860.86 317.69C860.86 317.69 868.94 306.59 876.01 304.57C883.08 302.55 884.09 292.45 884.09 292.45C884.09 292.45 902.26 312.65 913.37 313.66C924.47 314.67 914.38 289.42 914.38 289.42L894.18 284.37L875 286.39L859.85 296.49L860.86 317.69Z" />
	<path id="Layer" class="shp2" d="M936.44 468.61L935.81 441.82L875.07 441.82L873.13 513.63L871.82 513.6L873.8 440.52L937.07 440.52L937.09 441.15L937.74 468.56L936.44 468.61L936.44 468.61Z" />
	<path id="Layer" class="shp2" d="M935.13 432.04L933.83 432.04L933.83 382.22L954.89 388.33L954.53 389.59L935.13 383.96L935.13 432.04L935.13 432.04Z" />
	<path id="Layer" fill-rule="evenodd" class="shp2" d="M983.43 549.51C983.43 594.86 964.55 631.75 941.33 631.75C918.12 631.75 899.24 594.86 899.24 549.51C899.22 546.37 899.31 543.22 899.49 540.08C899.68 536.95 899.96 533.81 900.35 530.69C900.73 527.57 901.21 524.46 901.79 521.37C902.37 518.28 903.05 515.21 903.83 512.16C904.29 510.42 904.78 508.7 905.3 507.03C912.68 483.22 926.07 467.28 941.33 467.28C964.55 467.28 983.43 504.17 983.43 549.51ZM982.12 549.51C982.12 504.89 963.82 468.58 941.33 468.58C926.65 468.58 913.76 484.05 906.58 507.2C906.09 508.77 905.63 510.37 905.19 512.01C904.41 515.07 903.72 518.15 903.13 521.26C902.54 524.36 902.05 527.48 901.66 530.61C901.27 533.75 900.99 536.89 900.8 540.05C900.61 543.2 900.53 546.36 900.54 549.51C900.54 594.14 918.84 630.44 941.33 630.44C963.82 630.44 982.12 594.14 982.12 549.51Z" />
	<path id="Layer" fill-rule="evenodd" class="shp2" d="M951.45 597.06C943.4 597.06 937.09 576.17 937.09 549.51C937.09 522.85 943.4 501.97 951.45 501.97C959.5 501.97 965.81 522.85 965.81 549.51C965.81 576.17 959.5 597.06 951.45 597.06ZM951.45 503.27C944.37 503.27 938.39 524.45 938.39 549.51C938.39 574.58 944.37 595.75 951.45 595.75C958.52 595.75 964.5 574.58 964.5 549.51C964.5 524.45 958.52 503.27 951.45 503.27L951.45 503.27Z" />
	<path id="Layer" class="shp7" d="M953.08 560.43C950.01 560.43 947.53 555.55 947.53 549.51C947.53 543.47 950.01 538.59 953.08 538.59C956.15 538.59 958.63 543.47 958.63 549.51C958.63 555.55 956.15 560.43 953.08 560.43Z" />
	<path id="Layer" class="shp2" d="M944.27 381.13L957.98 386.35L955.36 393.53L944.27 388.96L944.27 381.13L944.27 381.13Z" />
	<path id="Layer" class="shp2" d="M890.1 437.26L890.1 447.7L928.98 447.7L928.98 437.95L890.1 437.26L890.1 437.26Z" />
	<path id="Layer" class="shp2" d="M790.24 432.04L790.24 442.48L829.13 442.48L829.13 432.73L790.24 432.04L790.24 432.04Z" />
	<path id="Layer" class="shp3" d="M861.38 406.7L861.06 406.7L861.06 398.01C861.06 397.35 860.93 396.69 860.68 396.08C860.43 395.47 860.06 394.92 859.59 394.45C859.12 393.98 858.57 393.61 857.96 393.36C857.35 393.11 856.7 392.98 856.03 392.98L837.62 392.98C836.96 392.98 836.31 393.11 835.7 393.36C835.09 393.61 834.53 393.98 834.07 394.45C833.6 394.92 833.23 395.47 832.97 396.08C832.72 396.69 832.59 397.35 832.59 398.01L832.59 445.69C832.59 446.35 832.72 447 832.97 447.61C833.23 448.22 833.6 448.78 834.07 449.24C834.53 449.71 835.09 450.08 835.7 450.33C836.31 450.59 836.96 450.72 837.62 450.72L856.03 450.72C856.7 450.72 857.35 450.59 857.96 450.33C858.57 450.08 859.12 449.71 859.59 449.24C860.06 448.78 860.43 448.22 860.68 447.61C860.93 447 861.06 446.35 861.06 445.69L861.06 412.88L861.38 412.88L861.38 406.7Z" />
	<path id="Layer" class="shp10" d="M846.99 410.87C845.28 410.87 843.91 409.49 843.91 407.79C843.91 406.08 845.28 404.71 846.99 404.71C848.69 404.71 850.07 406.08 850.07 407.79C850.07 409.49 848.69 410.87 846.99 410.87Z" />
	<path id="Layer" class="shp9" d="M925.07 437.89L863.45 436.73C863.45 436.73 829.04 444.6 833.64 427.39C838.25 410.18 862.34 423.46 862.34 423.46L927 421.03L925.07 437.89Z" />
	<path id="Layer" class="shp7" d="M918.82 349.15L924.69 344.58C924.69 344.58 934.48 339.36 936.44 357.63C938.39 375.91 952.75 436.6 938.39 437.26C924.04 437.91 887.49 438.56 887.49 438.56L891.4 418.33L921.43 416.37L918.82 349.15Z" />
	<path id="Layer" class="shp11" d="M920.77 377.21L918.82 414.41L890.1 420.29L916.21 409.85L920.77 377.21L920.77 377.21Z" />
	<path id="Layer" class="shp6" d="M520.68 54.41L527.52 84.56L498.42 91.16L491.58 61.01L520.68 54.41Z" />
	<path id="Layer" fill-rule="evenodd" class="shp2" d="M501.35 86.32L494.15 54.59L524.78 47.64L531.98 79.37L501.35 86.32ZM496.04 55.83L502.52 84.39L530.09 78.13L523.61 49.57L496.04 55.83Z" />
	<path id="Layer" fill-rule="evenodd" class="shp2" d="M803.31 218.03L803.31 139.32L1033.31 139.32L1033.31 197.53L823.81 197.53L803.31 218.03ZM805.31 141.32L805.31 213.2L822.99 195.53L1031.31 195.53L1031.31 141.32L805.31 141.32Z" />
	<path id="Layer" class="shp3" d="M855.18 153.97L983.45 153.97L983.45 164.37L855.18 164.37L855.18 153.97Z" />
	<path id="Layer" class="shp3" d="M855.18 169.57L983.45 169.57L983.45 179.97L855.18 179.97L855.18 169.57Z" />
</svg>