<svg xmlns="http://www.w3.org/2000/svg" viewBox="0 0 1083 759" width="1083" height="759">
	<style>
		tspan { white-space:pre }
		.shp0 { fill: #f2f2f2 } 
		.shp1 { fill: #3f7e44 } 
		.shp2 { fill: #4c9f38 } 
		.shp3 { fill: none;stroke: #3f3d56;stroke-width: 2 } 
		.shp4 { opacity: 0.102;fill: #000000 } 
		.shp5 { fill: #fcc30b } 
		.shp6 { fill: #3f3d56;stroke: #3f3d56;stroke-width: 2 } 
		.shp7 { fill: #fd9d24 } 
		.shp8 { fill: #2f2e41 } 
		.shp9 { fill: #9f616a } 
		.shp10 { fill: #d0cde1 } 
		.shp11 { fill: #007db8 } 
		.shp12 { fill: #ffffff } 
	</style>
	<path id="Layer" class="shp0" d="M406.16 739.85C212.45 739.85 55.86 583.26 55.86 389.54C55.86 195.83 212.45 39.24 406.16 39.24C599.88 39.24 756.47 195.83 756.47 389.54C756.47 583.26 599.88 739.85 406.16 739.85Z" />
	<path id="Layer" class="shp1" d="M463.2 443.64C385.79 562.36 407 713.36 407 713.36C407 713.36 553.73 671.87 631.14 553.15C708.55 434.44 687.34 283.44 687.34 283.44C687.34 283.44 540.62 324.93 463.2 443.64Z" />
	<path id="Layer" class="shp2" d="M406.59 711.98C406.59 711.98 404.7 711.68 401.24 710.97C398.47 710.41 394.66 709.61 390.01 708.51C348.43 698.7 237.88 665.56 165.6 578.43C75.15 469.33 78.95 316.9 78.95 316.9C78.95 316.9 217.27 339.37 308.41 437.35C312.36 441.56 316.2 445.92 319.94 450.44C398.65 545.37 405.99 673.1 406.57 704.68C406.65 709.41 406.59 711.98 406.59 711.98Z" />
	<path id="Layer" class="shp3" d="M350.8 443.64C428.21 562.36 407 713.36 407 713.36C407 713.36 260.28 671.87 182.86 553.15C105.45 434.43 126.66 283.44 126.66 283.44C126.66 283.44 273.38 324.93 350.8 443.64Z" />
	<path id="Layer" class="shp4" d="M406.57 704.68C404.52 707.14 402.72 709.25 401.24 710.97C397.95 714.72 396.08 716.69 396.08 716.69C396.08 716.69 393.82 713.84 390.01 708.51C369.1 679.36 301.83 575.71 307.03 455.98C307.31 449.7 307.77 443.49 308.41 437.35C312.36 441.56 316.2 445.93 319.94 450.44C398.65 545.37 405.99 673.1 406.57 704.68Z" />
	<path id="Layer" class="shp2" d="M521.35 464.63C515.23 606.23 410.12 716.69 410.12 716.69C410.12 716.69 314.94 597.58 321.05 455.98C327.17 314.38 432.28 203.92 432.28 203.92C432.28 203.92 527.47 323.04 521.35 464.63Z" />
	<path id="Layer" class="shp3" d="M410.12 712.68L433.23 209.7" />
	<path id="Layer" class="shp5" d="M541.5 758.56C242.05 758.56 0 743.6 0 725.09C0 706.58 242.05 691.62 541.5 691.62C840.95 691.62 1083 706.58 1083 725.09C1083 743.6 840.95 758.56 541.5 758.56Z" />
	<path id="Layer" class="shp6" d="M89.88 712.79L89.88 577.61" />
	<path id="Layer" class="shp7" d="M89.88 596.73C79.31 596.73 70.77 588.18 70.77 577.61C70.77 567.04 79.31 558.5 89.88 558.5C100.45 558.5 109 567.04 109 577.61C109 588.18 100.45 596.73 89.88 596.73ZM89.88 660.93C89.88 660.93 87.15 602.19 31.17 609.02" />
	<path id="Layer" class="shp6" d="M555.45 492.11L555.45 113.53" />
	<path id="Layer" class="shp7" d="M555.45 139.83C540.91 139.83 529.16 128.07 529.16 113.53C529.16 98.99 540.91 87.24 555.45 87.24C569.99 87.24 581.75 98.99 581.75 113.53C581.75 128.07 569.99 139.83 555.45 139.83Z" />
	<path id="Layer" class="shp7" d="M555.45 220.62C555.45 220.62 551.7 139.83 474.69 149.22" />
	<path id="Layer" class="shp8" d="M871.29 282.6L848.47 325.62C848.47 325.62 683.43 357.22 704.5 406.39C725.57 455.55 749.27 527.53 761.56 525.78C773.85 524.02 841.45 485.4 844.08 473.98C846.71 462.57 783.51 409.02 783.51 409.02L887.97 388.83C887.97 388.83 902.9 459.06 883.58 507.34C864.27 555.63 852.86 686.43 866.03 688.19C879.19 689.94 912.55 700.48 927.48 690.82C942.4 681.16 949.43 469.59 949.43 469.59C949.43 469.59 981.03 330.89 961.72 315.09C942.4 299.28 871.29 282.6 871.29 282.6Z" />
	<path id="Layer" class="shp8" d="M907.16 666.86C907.16 666.86 886.99 656.24 882.74 664.73C882.74 664.73 885.93 690.22 873.18 693.4C860.44 696.59 855.14 718.88 873.18 721.01C891.23 723.13 902.91 716.76 909.28 716.76C915.65 716.76 909.28 694.46 909.28 694.46L907.16 666.86Z" />
	<path id="Layer" class="shp8" d="M810.95 490.62C810.95 490.62 788.99 484.5 786.63 493.7C786.63 493.7 795.11 517.93 783.33 523.73C771.55 529.54 771.06 552.45 789.15 550.72C807.24 548.99 817.32 540.3 823.54 538.95C829.77 537.61 818.84 517.16 818.84 517.16L810.95 490.62Z" />
	<path id="Layer" class="shp9" d="M920.02 131.17C920.02 131.17 920.89 163.65 914.75 166.28C908.6 168.92 948.99 184.72 948.99 184.72L956.01 172.43C956.01 172.43 948.11 128.54 949.86 125.02C951.62 121.51 920.02 131.17 920.02 131.17Z" />
	<path id="Layer" class="shp8" d="M934.66 138.55C904.9 138.55 880.84 114.49 880.84 84.73C880.84 54.96 904.9 30.9 934.66 30.9C964.43 30.9 988.49 54.96 988.49 84.73C988.49 114.49 964.43 138.55 934.66 138.55Z" />
	<path id="Layer" class="shp8" d="M938.38 56.61C926.06 56.61 916.1 46.65 916.1 34.34C916.1 22.02 926.06 12.06 938.38 12.06C950.69 12.06 960.65 22.02 960.65 34.34C960.65 46.65 950.69 56.61 938.38 56.61Z" />
	<path id="Layer" class="shp8" d="M908.68 22.27C908.68 19.54 909.18 16.84 910.16 14.29C911.14 11.74 912.58 9.39 914.4 7.37C916.23 5.34 918.41 3.66 920.85 2.42C923.28 1.19 925.92 0.41 928.63 0.12C928.44 0.1 928.25 0.08 928.05 0.07C927.86 0.05 927.67 0.04 927.47 0.03C927.28 0.02 927.09 0.01 926.89 0.01C926.7 0 926.51 0 926.31 0C920.41 0 914.74 2.35 910.56 6.52C906.39 10.7 904.04 16.37 904.04 22.27C904.04 28.18 906.39 33.85 910.56 38.02C914.74 42.2 920.41 44.55 926.31 44.55C926.51 44.55 926.7 44.54 926.89 44.54C927.09 44.53 927.28 44.53 927.47 44.52C927.67 44.51 927.86 44.49 928.05 44.48C928.25 44.46 928.44 44.45 928.63 44.43C925.92 44.14 923.28 43.36 920.85 42.12C918.41 40.88 916.23 39.21 914.4 37.18C912.58 35.15 911.14 32.8 910.16 30.26C909.18 27.71 908.68 25 908.68 22.27L908.68 22.27Z" />
	<path id="Layer" class="shp9" d="M933.18 147.85C912.79 147.85 896.31 131.37 896.31 110.98C896.31 90.59 912.79 74.11 933.18 74.11C953.57 74.11 970.06 90.59 970.06 110.98C970.06 131.37 953.57 147.85 933.18 147.85Z" />
	<path id="Layer" class="shp10" d="M959.08 158.82C959.08 158.82 927.48 168.48 911.68 158.82C895.87 149.17 858.13 177.26 851.98 189.55C845.84 201.84 874.81 214.13 874.81 214.13C874.81 214.13 866.53 237.86 868.22 249.68C869.98 261.97 866.9 286.99 866.9 286.99C866.9 286.99 944.46 338.09 961.72 315.09C964.35 311.57 986.3 229.05 986.3 229.05L1017.02 198.33C1017.02 198.33 997.71 170.23 986.3 167.6C974.88 164.97 959.08 158.82 959.08 158.82Z" />
	<path id="Layer" class="shp9" d="M747.07 339.23C747.07 339.23 687.38 369.95 699.67 378.73C711.96 387.51 762 344.49 762 344.49L747.07 339.23Z" />
	<path id="Layer" class="shp9" d="M981.47 317.28C981.47 317.28 954.91 299.35 950.63 308.31C946.35 317.28 979.71 337.47 986.74 329.57C993.76 321.67 981.47 317.28 981.47 317.28Z" />
	<path id="Layer" class="shp10" d="M1001.22 188.67L1017.02 198.33C1017.02 198.33 1070.57 272.07 1052.14 288.75C1033.7 305.43 986.3 338.79 986.3 338.79C986.3 338.79 970.49 315.96 975.76 315.09C981.03 314.21 1023.17 279.09 1023.17 279.09L986.3 210.62L1001.22 188.67ZM862.51 185.16L851.1 189.55L821.25 243.1L742.24 338.79C742.24 338.79 752.78 355.47 761.56 351.96C770.34 348.45 836.18 274.7 836.18 274.7L879.19 207.98L862.51 185.16Z" />
	<path id="Layer" class="shp8" d="M934.66 89.44C914.14 89.44 897.54 79.49 897.54 67.17C897.54 54.85 914.14 44.9 934.66 44.9C955.19 44.9 971.79 54.85 971.79 67.17C971.79 79.49 955.19 89.44 934.66 89.44Z" />
	<path id="Layer" class="shp11" d="M685 543.24L858 543.24L858 716.24L685 716.24L685 543.24Z" />
	<path id="Layer" fill-rule="evenodd" class="shp12" d="M835 622.54C835 647.05 823.52 662.5 805.37 662.5C796.07 662.5 789 657.54 787.77 650.16L786.45 650.16C783.17 657.83 776.43 662.03 767.37 662.03C751.23 662.03 740.44 649.1 740.44 629.85C740.44 611.37 751.29 598.5 767.13 598.5C775.27 598.5 782.18 602.6 785.23 609.32L786.55 609.32L786.55 600.12L799.74 600.12L799.74 642.88C799.74 648.21 802.69 651.42 807.98 651.42C817.14 651.42 822.96 640.3 822.96 623.04C822.96 595.49 802.32 577.07 771.83 577.07C741.67 577.07 720.17 599.06 720.17 630.18C720.17 662 741.44 682.31 774.54 682.31C776.05 682.32 777.56 682.29 779.06 682.23C780.57 682.17 782.07 682.08 783.57 681.95C785.07 681.83 786.57 681.66 788.07 681.47C789.56 681.28 791.05 681.05 792.53 680.79C793.88 680.53 795.26 680.8 796.4 681.56C797.54 682.31 798.34 683.48 798.63 684.81C798.92 686.15 798.68 687.54 797.95 688.7C797.23 689.86 796.08 690.68 794.75 691.01C793.05 691.39 791.34 691.72 789.62 692.01C787.9 692.29 786.18 692.53 784.45 692.72C782.71 692.9 780.98 693.04 779.24 693.13C777.5 693.22 775.76 693.26 774.01 693.25C733.76 693.22 708 668.35 708 629.75C708 592.08 734.29 566.22 772.62 566.22C809.47 566.22 835 589.21 835 622.54ZM754.7 630.15C754.7 642.39 760.45 649.8 769.81 649.8C779.67 649.8 785.89 642.19 785.89 630.15C785.89 618.11 779.67 610.67 769.98 610.67C760.35 610.67 754.7 617.88 754.7 630.15Z" />
</svg>