<svg xmlns="http://www.w3.org/2000/svg" viewBox="0 0 963 789" width="963" height="789">
	<style>
		tspan { white-space:pre }
		.shp0 { fill: #f2f2f2 } 
		.shp1 { fill: #007db8 } 
		.shp2 { fill: #ffb9b9 } 
		.shp3 { fill: #2f2e41 } 
		.shp4 { fill: #ffffff } 
		.shp5 { opacity: 0.102;fill: #007db8 } 
		.shp6 { fill: #fd9d24 } 
		.shp7 { fill: #3f7e44 } 
		.shp8 { fill: #4c9f38 } 
		.shp9 { fill: #fcc30b } 
		.shp10 { fill: #ff983c } 
		.shp11 { fill: #00689d } 
		.shp12 { opacity: 0.102;fill: #000000 } 
	</style>
	<path id="Layer" class="shp0" d="M220.59 159.45L224.68 497.37L401.68 583.58L397.58 245.66L220.59 159.45L220.59 159.45Z" />
	<path id="Layer" class="shp0" d="M166.81 132.45L34.55 403.96L214 491.37L209.9 153.45L166.81 132.45L166.81 132.45Z" />
	<path id="Layer" class="shp0" d="M962.19 513.87L605 339.88L609.1 677.79L829.94 785.37L962.19 513.87L962.19 513.87Z" />
	<path id="Layer" class="shp0" d="M413.58 245.66L417.68 583.58L594.66 669.79L590.57 331.88L413.58 245.66L413.58 245.66Z" />
	<path id="Layer" class="shp1" d="M790.84 260.92L813.07 260.06L814.17 288.63L791.95 289.49L790.84 260.92Z" />
	<path id="Layer" class="shp2" d="M712.81 360.13C712.81 360.13 682.03 345.43 682.52 358.13C683.01 370.83 713.55 379.18 713.55 379.18L712.81 360.13Z" />
	<path id="Layer" class="shp3" d="M729.69 467.59C729.69 467.59 715.17 503.14 709.81 528.78C704.44 554.43 696.27 589.73 706.78 614.76C717.29 639.79 747.17 713.36 747.48 721.29C747.79 729.23 744.92 737.29 751.27 737.05C757.62 736.8 792.18 725.92 793.58 721.1C794.98 716.27 781.79 704.06 781.79 704.06L749.21 601.98L783.2 535.48L807.72 634.69L812.52 758.52C812.52 758.52 836.09 751.25 839.51 757.47C839.51 757.47 850.07 742.75 851.41 736.34C852.75 729.93 846.42 607.75 846.42 607.75C846.42 607.75 868.06 468.59 850.59 469.27C833.13 469.94 764.73 428.08 729.69 467.59Z" />
	<path id="Layer" class="shp3" d="M751.03 730.7C751.03 730.7 734.92 766.3 733.39 767.95C731.86 769.6 721.37 785.9 729.31 785.6C737.24 785.29 755.99 776.61 769.78 763.36C783.58 750.1 801.77 727.14 800.12 725.61C798.47 724.09 787.17 719.75 787.17 719.75L751.03 730.7Z" />
	<path id="Layer" class="shp3" d="M815.39 750.46C815.39 750.46 814.42 766.4 811.49 772.87C808.56 779.34 808.93 788.87 816.87 788.56C824.8 788.25 845.32 784.28 845.32 784.28C845.32 784.28 846.54 774.69 844.89 773.16C843.24 771.64 836.21 754.42 839.2 749.54C842.19 744.65 815.39 750.46 815.39 750.46Z" />
	<path id="Layer" class="shp2" d="M827.13 233.28C827.13 233.28 844.05 259.65 850.65 265.75C857.25 271.86 838.69 285.3 838.69 285.3L805.47 289.76C805.47 289.76 805.89 259.54 804.18 256.43C802.47 253.31 827.13 233.28 827.13 233.28Z" />
	<path id="Layer" class="shp4" d="M798.26 267.78C798.26 267.78 805.1 280.24 811.45 279.99C817.8 279.75 850.65 265.75 852.05 260.93C853.46 256.1 862.93 295.49 862.93 295.49L782.56 436.93L762.96 423.38L772.46 340.33L780.26 295.51L798.26 267.78Z" />
	<path id="Layer" class="shp1" d="M855.02 394.37C851.81 401.07 849.81 408.07 850.09 415.23C850.1 415.55 850.11 415.86 850.14 416.18C850.9 430.87 856.31 447.87 858.26 460.22C859.66 469.09 859.26 475.56 854.08 477.08C841.5 480.75 855.91 483.37 807.25 499.57C758.59 515.76 750.1 501.78 749.97 498.61C749.85 495.43 756.87 471.31 755.22 469.78C753.57 468.26 732.14 489.76 725.67 486.83C719.2 483.9 724.93 467.78 724.93 467.78C724.93 467.78 739.51 433.83 739.21 425.89C738.9 417.95 761.29 380.51 761.29 380.51L776.53 281.35C776.53 281.35 782.39 268.4 790.26 266.5C798.14 264.61 804.67 269.13 804.67 269.13L791.49 298.26L777.59 349.67L779.91 368.66C779.91 368.66 796.08 334.65 806.7 321.51C817.33 308.38 839.97 277.3 839.97 277.3C839.97 277.3 845.26 259.46 841.26 254.13C837.27 248.78 857.91 247.98 866.71 269.9C871.37 281.52 878.95 298.84 883.69 314.97C887.92 329.26 889.91 342.61 885.73 350.25C879.33 361.91 863.23 377.24 855.02 394.37Z" />
	<path id="Layer" class="shp5" d="M885.73 350.25C879.33 361.91 863.23 377.24 855.02 394.37C852.87 386.64 850.26 378.65 850.26 378.65C850.26 378.65 840.23 324.98 869.9 311.11C871.11 311 872.34 310.99 873.56 311.1C874.77 311.21 875.98 311.43 877.15 311.75C878.33 312.08 879.47 312.52 880.57 313.06C881.67 313.6 882.71 314.24 883.69 314.97C887.92 329.26 889.91 342.61 885.73 350.25Z" />
	<path id="Layer" class="shp1" d="M767.94 346.87L742.79 354.2L707.86 355.56L704.27 385.9L761.66 390.04C761.66 390.04 776 349.73 767.94 346.87Z" />
	<path id="Layer" class="shp2" d="M808.96 448.91C808.96 448.91 775.31 454.49 782.99 464.62C790.67 474.74 820.48 464.1 820.48 464.1L808.96 448.91Z" />
	<path id="Layer" class="shp5" d="M850.14 416.18C850.9 430.87 856.31 447.87 858.26 460.22C847.54 470.37 837.34 479.32 833.5 479.47C825.56 479.78 812.8 478.68 808.1 480.45C803.4 482.23 800.64 452.12 800.64 452.12C800.64 452.12 803.45 442.48 815.96 437.22C824.41 433.67 840.6 424.02 850.14 416.18Z" />
	<path id="Layer" class="shp1" d="M870.53 302.59C870.53 302.59 897.39 298.37 895.94 342.94C894.49 387.52 898.78 415.97 887.97 424.34C877.17 432.71 842.07 470.64 834.13 470.94C826.19 471.25 813.43 470.16 808.73 471.93C804.03 473.7 801.27 443.6 801.27 443.6C801.27 443.6 804.08 433.95 816.59 428.7C829.11 423.44 858.59 404.81 858.35 398.46C858.1 392.11 850.89 370.13 850.89 370.13C850.89 370.13 840.86 316.46 870.53 302.59Z" />
	<path id="Layer" class="shp2" d="M803.44 272.33C784.11 272.33 768.49 256.7 768.49 237.37C768.49 218.05 784.11 202.42 803.44 202.42C822.77 202.42 838.39 218.05 838.39 237.37C838.39 256.7 822.77 272.33 803.44 272.33Z" />
	<path id="Layer" class="shp3" d="M779.91 187.28C779.7 187.46 779.48 187.63 779.25 187.78C779.02 187.93 778.78 188.07 778.53 188.2C778.28 188.32 778.03 188.43 777.77 188.52C777.51 188.62 777.24 188.69 776.97 188.75C776.7 188.8 776.42 188.8 776.15 188.74C775.89 188.68 775.63 188.57 775.41 188.41C775.18 188.26 774.99 188.06 774.84 187.83C774.69 187.6 774.59 187.34 774.54 187.07C773.74 188.73 772.84 190.5 771.2 191.35C769.57 192.2 767.05 191.48 766.81 189.66C766.75 190 766.67 190.34 766.56 190.68C766.46 191.01 766.33 191.33 766.18 191.65C766.03 191.97 765.86 192.27 765.67 192.57C765.48 192.86 765.27 193.14 765.04 193.4C764.02 194.37 762.19 194.61 761.3 193.53C762.02 197.43 761.58 201.45 761.8 205.42C762.03 209.38 763.08 213.59 766.08 216.2C770.45 220 777.02 219.06 782.77 218.34C782.99 218.3 783.2 218.26 783.42 218.25C783.64 218.23 783.87 218.23 784.09 218.24C784.31 218.25 784.53 218.28 784.74 218.32C784.96 218.36 785.17 218.42 785.38 218.48C787.54 219.4 787.44 222.4 787.47 224.74C787.56 226.77 788 228.78 788.78 230.66C789.56 232.54 790.67 234.27 792.05 235.77C793.44 237.27 795.07 238.51 796.88 239.44C798.7 240.38 800.66 240.98 802.68 241.23C803.24 241.32 803.81 241.35 804.38 241.33C804.95 241.3 805.52 241.22 806.07 241.09C806.63 240.95 807.17 240.76 807.68 240.52C808.2 240.28 808.69 239.99 809.15 239.65C810.79 238.27 811.62 236.02 813.49 234.98C816.53 233.29 820.22 235.75 822.44 238.43C824.67 241.11 826.86 244.4 830.31 244.89C834.86 245.54 838.33 240.89 840.04 236.62C841.21 233.63 842.08 230.53 842.63 227.37C843.19 224.2 843.43 220.99 843.35 217.78C843.27 214.57 842.86 211.38 842.15 208.25C841.43 205.12 840.4 202.07 839.08 199.15C829.56 178.4 797.06 175.12 779.91 187.28Z" />
	<path id="Layer" class="shp6" d="M594.94 216.07C555.13 216.07 522.94 183.88 522.94 144.07C522.94 104.25 555.13 72.07 594.94 72.07C634.76 72.07 666.94 104.25 666.94 144.07C666.94 183.88 634.76 216.07 594.94 216.07Z" />
	<path id="Layer" class="shp7" d="M516.61 68.11C533.2 85.12 558.69 87.18 558.69 87.18C558.69 87.18 557.27 61.66 540.68 44.64C524.1 27.62 498.61 25.56 498.61 25.56C498.61 25.56 500.02 51.09 516.61 68.11Z" />
	<path id="Layer" class="shp8" d="M522.18 59.36C545.12 65.55 559.35 86.79 559.35 86.79C559.35 86.79 536.37 98 513.42 91.82C490.48 85.63 476.26 64.38 476.26 64.38C476.26 64.38 499.23 53.17 522.18 59.36Z" />
	<path id="Layer" class="shp7" d="M544.7 43.14C544.85 66.9 561.78 86.06 561.78 86.06C561.78 86.06 578.47 66.68 578.32 42.92C578.16 19.16 561.23 0 561.23 0C561.23 0 544.55 19.37 544.7 43.14Z" />
	<path id="Layer" class="shp8" d="M554.78 40.69C567.02 61.06 562.53 86.23 562.53 86.23C562.53 86.23 538.2 78.38 525.96 58.01C513.72 37.64 518.21 12.47 518.21 12.47C518.21 12.47 542.54 20.32 554.78 40.69Z" />
	<path id="Layer" class="shp0" d="M588.43 175.54C567.97 175.54 551.43 159 551.43 138.54C551.43 118.08 567.97 101.54 588.43 101.54C608.89 101.54 625.43 118.08 625.43 138.54C625.43 159 608.89 175.54 588.43 175.54Z" />
	<path id="Layer" class="shp9" d="M571.11 161.99C564.48 161.99 559.11 156.63 559.11 149.99C559.11 143.35 564.48 137.99 571.11 137.99C577.75 137.99 583.11 143.35 583.11 149.99C583.11 156.63 577.75 161.99 571.11 161.99Z" />
	<path id="Layer" class="shp6" d="M208 782.91C168.18 782.91 136 750.73 136 710.91C136 671.1 168.18 638.91 208 638.91C247.82 638.91 280 671.1 280 710.91C280 750.73 247.82 782.91 208 782.91Z" />
	<path id="Layer" class="shp7" d="M176.56 606.42C182.77 629.36 204.02 643.57 204.02 643.57C204.02 643.57 215.22 620.58 209.01 597.64C202.81 574.7 181.55 560.5 181.55 560.5C181.55 560.5 170.36 583.48 176.56 606.42Z" />
	<path id="Layer" class="shp8" d="M185.68 601.49C202.71 618.07 204.79 643.55 204.79 643.55C204.79 643.55 179.26 642.16 162.23 625.58C145.21 609 143.13 583.52 143.13 583.52C143.13 583.52 168.65 584.92 185.68 601.49Z" />
	<path id="Layer" class="shp7" d="M213.25 599.29C201.82 620.12 207.28 645.09 207.28 645.09C207.28 645.09 231.28 636.3 242.72 615.47C254.16 594.63 248.7 569.66 248.7 569.66C248.7 569.66 224.69 578.46 213.25 599.29Z" />
	<path id="Layer" class="shp8" d="M223.24 601.06C224.02 624.81 207.84 644.61 207.84 644.61C207.84 644.61 190.42 625.9 189.64 602.15C188.87 578.4 205.04 558.6 205.04 558.6C205.04 558.6 222.47 577.31 223.24 601.06Z" />
	<path id="Layer" class="shp0" d="M205 739.91C184.54 739.91 168 723.37 168 702.91C168 682.45 184.54 665.91 205 665.91C225.46 665.91 242 682.45 242 702.91C242 723.37 225.46 739.91 205 739.91Z" />
	<path id="Layer" class="shp9" d="M217 696.91C210.36 696.91 205 691.55 205 684.91C205 678.28 210.36 672.91 217 672.91C223.64 672.91 229 678.28 229 684.91C229 691.55 223.64 696.91 217 696.91Z" />
	<path id="Layer" class="shp3" d="M10 781.91L385 781.91L385 783.91L10 783.91L10 781.91Z" />
	<path id="Layer" class="shp3" d="M563 785.91L938 785.91L938 787.91L563 787.91L563 785.91Z" />
	<path id="Layer" class="shp3" d="M95.89 783.37L94.11 782.45C117.19 737.83 104.85 679.88 90.43 639.12C87.99 632.28 85.37 625.5 82.59 618.78C79.81 612.07 76.86 605.43 73.75 598.86C70.64 592.29 67.36 585.8 63.93 579.4C60.49 572.99 56.9 566.67 53.15 560.45L54.85 559.38C58.61 565.64 62.22 571.99 65.67 578.42C69.13 584.86 72.42 591.38 75.55 597.98C78.67 604.59 81.64 611.26 84.43 618.01C87.23 624.76 89.86 631.57 92.32 638.45C106.87 679.58 119.3 738.11 95.89 783.37Z" />
	<path id="Layer" class="shp3" d="M100.03 630.74L113 559.73L114.97 560.09L102 631.1L100.03 630.74Z" />
	<path id="Layer" class="shp3" d="M25.27 621.59L26.73 620.23L93.73 692.23L92.27 693.59L25.27 621.59Z" />
	<path id="Layer" class="shp3" d="M113.2 746.33L147.18 699.32L148.8 700.49L114.82 747.5L113.2 746.33Z" />
	<path id="Layer" class="shp10" d="M119 540.91C113.47 540.91 109 536.44 109 530.91C109 525.38 113.47 520.91 119 520.91C124.53 520.91 129 525.38 129 530.91C129 536.44 124.53 540.91 119 540.91Z" />
	<path id="Layer" class="shp9" d="M10 617.91C4.47 617.91 0 613.44 0 607.91C0 602.38 4.47 597.91 10 597.91C15.53 597.91 20 602.38 20 607.91C20 613.44 15.53 617.91 10 617.91Z" />
	<path id="Layer" class="shp10" d="M54 627.91C48.47 627.91 44 623.44 44 617.91C44 612.38 48.47 607.91 54 607.91C59.53 607.91 64 612.38 64 617.91C64 623.44 59.53 627.91 54 627.91Z" />
	<path id="Layer" class="shp10" d="M34 666.91C28.47 666.91 24 662.44 24 656.91C24 651.38 28.47 646.91 34 646.91C39.53 646.91 44 651.38 44 656.91C44 662.44 39.53 666.91 34 666.91Z" />
	<path id="Layer" class="shp9" d="M159 691.91C153.47 691.91 149 687.44 149 681.91C149 676.38 153.47 671.91 159 671.91C164.53 671.91 169 676.38 169 681.91C169 687.44 164.53 691.91 159 691.91Z" />
	<path id="Layer" class="shp9" d="M126 702.91C120.47 702.91 116 698.44 116 692.91C116 687.38 120.47 682.91 126 682.91C131.53 682.91 136 687.38 136 692.91C136 698.44 131.53 702.91 126 702.91Z" />
	<path id="Layer" class="shp9" d="M149 734.91C143.47 734.91 139 730.44 139 724.91C139 719.38 143.47 714.91 149 714.91C154.53 714.91 159 719.38 159 724.91C159 730.44 154.53 734.91 149 734.91Z" />
	<path id="Layer" class="shp9" d="M44 552.91C38.47 552.91 34 548.44 34 542.91C34 537.38 38.47 532.91 44 532.91C49.53 532.91 54 537.38 54 542.91C54 548.44 49.53 552.91 44 552.91Z" />
	<path id="Layer" class="shp11" d="M204.6 179.24L686.6 179.24L686.6 468.24L204.6 468.24L204.6 179.24Z" />
	<path id="Layer" class="shp1" d="M223.6 195.24C220.83 195.24 218.6 193 218.6 190.24C218.6 187.47 220.83 185.24 223.6 185.24C226.36 185.24 228.6 187.47 228.6 190.24C228.6 193 226.36 195.24 223.6 195.24Z" />
	<path id="Layer" class="shp1" d="M241.6 195.24C238.83 195.24 236.6 193 236.6 190.24C236.6 187.47 238.83 185.24 241.6 185.24C244.36 185.24 246.6 187.47 246.6 190.24C246.6 193 244.36 195.24 241.6 195.24Z" />
	<path id="Layer" class="shp1" d="M259.6 195.24C256.83 195.24 254.6 193 254.6 190.24C254.6 187.47 256.83 185.24 259.6 185.24C262.36 185.24 264.6 187.47 264.6 190.24C264.6 193 262.36 195.24 259.6 195.24Z" />
	<path id="Layer" class="shp3" d="M205 201.42L686.6 201.42L686.6 203.42L205 203.42L205 201.42Z" />
	<path id="Layer" class="shp4" d="M485.6 260.24L485.6 350.24L354.77 350.24L330.6 379.24L333.36 350.24L321.6 350.24L321.6 260.24L485.6 260.24L485.6 260.24Z" />
	<path id="Layer" class="shp12" d="M426.6 291.24L485.6 291.24L485.6 350.24L426.6 350.24L426.6 291.24Z" />
	<path id="Layer" class="shp4" d="M439.6 304.24L603.6 304.24L603.6 394.24L591.84 394.24L594.6 423.24L570.43 394.24L439.6 394.24L439.6 304.24L439.6 304.24Z" />
	<path id="Layer" class="shp12" d="M331.6 393.75C311.69 393.75 295.6 392.18 295.6 390.24C295.6 388.3 311.69 386.73 331.6 386.73C351.5 386.73 367.6 388.3 367.6 390.24C367.6 392.18 351.5 393.75 331.6 393.75Z" />
	<path id="Layer" class="shp12" d="M594.6 441.24C571.92 441.24 553.6 439.45 553.6 437.24C553.6 435.03 571.92 433.24 594.6 433.24C617.27 433.24 635.6 435.03 635.6 437.24C635.6 439.45 617.27 441.24 594.6 441.24Z" />
</svg>